<mxfile host="Electron" modified="2024-04-23T18:42:08.172Z" agent="Mozilla/5.0 (Windows NT 10.0; Win64; x64) AppleWebKit/537.36 (KHTML, like Gecko) draw.io/24.1.0 Chrome/120.0.6099.109 Electron/28.1.0 Safari/537.36" etag="OOkLuhi0uQFkHjjYDIx0" version="24.1.0" type="device">
  <diagram id="C5RBs43oDa-KdzZeNtuy" name="Page-1">
    <mxGraphModel dx="1034" dy="511" grid="1" gridSize="10" guides="1" tooltips="1" connect="1" arrows="1" fold="1" page="1" pageScale="1" pageWidth="827" pageHeight="1169" math="0" shadow="0">
      <root>
        <mxCell id="WIyWlLk6GJQsqaUBKTNV-0" />
        <mxCell id="WIyWlLk6GJQsqaUBKTNV-1" parent="WIyWlLk6GJQsqaUBKTNV-0" />
        <mxCell id="zyLFG_JOlrQk-XFl9pap-7" value="&lt;b&gt;filesystem&lt;/b&gt;" style="shape=cylinder3;whiteSpace=wrap;html=1;boundedLbl=1;backgroundOutline=1;size=15;" parent="WIyWlLk6GJQsqaUBKTNV-1" vertex="1">
          <mxGeometry x="309" y="200" width="390" height="200" as="geometry" />
        </mxCell>
        <mxCell id="zyLFG_JOlrQk-XFl9pap-1" value="CSV ollie recording" style="shape=card;whiteSpace=wrap;html=1;" parent="WIyWlLk6GJQsqaUBKTNV-1" vertex="1">
          <mxGeometry x="609" y="310" width="58" height="70" as="geometry" />
        </mxCell>
        <mxCell id="zyLFG_JOlrQk-XFl9pap-31" style="edgeStyle=orthogonalEdgeStyle;rounded=0;orthogonalLoop=1;jettySize=auto;html=1;exitX=0;exitY=0.5;exitDx=0;exitDy=0;entryX=0;entryY=0.5;entryDx=0;entryDy=0;" parent="WIyWlLk6GJQsqaUBKTNV-1" source="zyLFG_JOlrQk-XFl9pap-4" target="zyLFG_JOlrQk-XFl9pap-8" edge="1">
          <mxGeometry relative="1" as="geometry" />
        </mxCell>
        <mxCell id="zyLFG_JOlrQk-XFl9pap-32" value="6. is success or is error" style="edgeLabel;html=1;align=center;verticalAlign=middle;resizable=0;points=[];" parent="zyLFG_JOlrQk-XFl9pap-31" vertex="1" connectable="0">
          <mxGeometry x="0.099" y="2" relative="1" as="geometry">
            <mxPoint as="offset" />
          </mxGeometry>
        </mxCell>
        <mxCell id="zyLFG_JOlrQk-XFl9pap-4" value="comparing_app&lt;br&gt;.py/.exe" style="shape=process;whiteSpace=wrap;html=1;backgroundOutline=1;" parent="WIyWlLk6GJQsqaUBKTNV-1" vertex="1">
          <mxGeometry x="149" y="265" width="140" height="60" as="geometry" />
        </mxCell>
        <mxCell id="zyLFG_JOlrQk-XFl9pap-5" value="JSON comparison&lt;br&gt;of these two ollies" style="shape=note;whiteSpace=wrap;html=1;backgroundOutline=1;darkOpacity=0.05;" parent="WIyWlLk6GJQsqaUBKTNV-1" vertex="1">
          <mxGeometry x="329" y="265" width="80" height="100" as="geometry" />
        </mxCell>
        <mxCell id="zyLFG_JOlrQk-XFl9pap-16" value="" style="edgeStyle=orthogonalEdgeStyle;rounded=0;orthogonalLoop=1;jettySize=auto;html=1;" parent="WIyWlLk6GJQsqaUBKTNV-1" source="zyLFG_JOlrQk-XFl9pap-8" target="zyLFG_JOlrQk-XFl9pap-14" edge="1">
          <mxGeometry relative="1" as="geometry">
            <Array as="points">
              <mxPoint x="379" y="90" />
              <mxPoint x="379" y="90" />
            </Array>
          </mxGeometry>
        </mxCell>
        <mxCell id="zyLFG_JOlrQk-XFl9pap-17" value="1. get recordings" style="edgeLabel;html=1;align=center;verticalAlign=middle;resizable=0;points=[];" parent="zyLFG_JOlrQk-XFl9pap-16" vertex="1" connectable="0">
          <mxGeometry x="-0.4148" relative="1" as="geometry">
            <mxPoint x="14" y="-10" as="offset" />
          </mxGeometry>
        </mxCell>
        <mxCell id="zyLFG_JOlrQk-XFl9pap-26" style="edgeStyle=orthogonalEdgeStyle;rounded=0;orthogonalLoop=1;jettySize=auto;html=1;exitX=0.5;exitY=1;exitDx=0;exitDy=0;entryX=0.5;entryY=0;entryDx=0;entryDy=0;" parent="WIyWlLk6GJQsqaUBKTNV-1" source="zyLFG_JOlrQk-XFl9pap-8" target="zyLFG_JOlrQk-XFl9pap-4" edge="1">
          <mxGeometry relative="1" as="geometry" />
        </mxCell>
        <mxCell id="zyLFG_JOlrQk-XFl9pap-27" value="4. run with filepaths &lt;br&gt;as parameters" style="edgeLabel;html=1;align=center;verticalAlign=middle;resizable=0;points=[];" parent="zyLFG_JOlrQk-XFl9pap-26" vertex="1" connectable="0">
          <mxGeometry x="-0.1587" y="-1" relative="1" as="geometry">
            <mxPoint as="offset" />
          </mxGeometry>
        </mxCell>
        <mxCell id="zyLFG_JOlrQk-XFl9pap-33" style="edgeStyle=orthogonalEdgeStyle;rounded=0;orthogonalLoop=1;jettySize=auto;html=1;exitX=0.25;exitY=0;exitDx=0;exitDy=0;entryX=0.75;entryY=0;entryDx=0;entryDy=0;" parent="WIyWlLk6GJQsqaUBKTNV-1" source="zyLFG_JOlrQk-XFl9pap-8" target="zyLFG_JOlrQk-XFl9pap-14" edge="1">
          <mxGeometry relative="1" as="geometry">
            <Array as="points">
              <mxPoint x="239" y="60" />
              <mxPoint x="509" y="60" />
            </Array>
          </mxGeometry>
        </mxCell>
        <mxCell id="zyLFG_JOlrQk-XFl9pap-34" value="7. render comparison and images&lt;br&gt;(from fixed comparison.json filepath)" style="edgeLabel;html=1;align=center;verticalAlign=middle;resizable=0;points=[];" parent="zyLFG_JOlrQk-XFl9pap-33" vertex="1" connectable="0">
          <mxGeometry x="0.2341" y="-2" relative="1" as="geometry">
            <mxPoint x="-32" y="-12" as="offset" />
          </mxGeometry>
        </mxCell>
        <mxCell id="zyLFG_JOlrQk-XFl9pap-8" value="ollie w/ kinect&lt;br&gt;main process" style="shape=process;whiteSpace=wrap;html=1;backgroundOutline=1;" parent="WIyWlLk6GJQsqaUBKTNV-1" vertex="1">
          <mxGeometry x="209" y="80" width="120" height="60" as="geometry" />
        </mxCell>
        <mxCell id="zyLFG_JOlrQk-XFl9pap-10" value="CSV ollie recording" style="shape=card;whiteSpace=wrap;html=1;" parent="WIyWlLk6GJQsqaUBKTNV-1" vertex="1">
          <mxGeometry x="609" y="235" width="58" height="70" as="geometry" />
        </mxCell>
        <mxCell id="zyLFG_JOlrQk-XFl9pap-11" value="png plot" style="whiteSpace=wrap;html=1;shape=mxgraph.basic.document" parent="WIyWlLk6GJQsqaUBKTNV-1" vertex="1">
          <mxGeometry x="459" y="340" width="40" height="40" as="geometry" />
        </mxCell>
        <mxCell id="zyLFG_JOlrQk-XFl9pap-13" value="html plot" style="whiteSpace=wrap;html=1;shape=mxgraph.basic.document" parent="WIyWlLk6GJQsqaUBKTNV-1" vertex="1">
          <mxGeometry x="419" y="340" width="40" height="40" as="geometry" />
        </mxCell>
        <mxCell id="zyLFG_JOlrQk-XFl9pap-23" style="edgeStyle=orthogonalEdgeStyle;rounded=0;orthogonalLoop=1;jettySize=auto;html=1;exitX=0;exitY=0.75;exitDx=0;exitDy=0;entryX=1;entryY=0.75;entryDx=0;entryDy=0;" parent="WIyWlLk6GJQsqaUBKTNV-1" source="zyLFG_JOlrQk-XFl9pap-14" target="zyLFG_JOlrQk-XFl9pap-8" edge="1">
          <mxGeometry relative="1" as="geometry" />
        </mxCell>
        <mxCell id="zyLFG_JOlrQk-XFl9pap-24" value="3. return filepaths &lt;br&gt;to csv recordings" style="edgeLabel;html=1;align=center;verticalAlign=middle;resizable=0;points=[];" parent="zyLFG_JOlrQk-XFl9pap-23" vertex="1" connectable="0">
          <mxGeometry x="0.158" y="-1" relative="1" as="geometry">
            <mxPoint x="2" y="16" as="offset" />
          </mxGeometry>
        </mxCell>
        <mxCell id="zyLFG_JOlrQk-XFl9pap-14" value="ollie w/ kinect&lt;br&gt;renderer process" style="shape=process;whiteSpace=wrap;html=1;backgroundOutline=1;" parent="WIyWlLk6GJQsqaUBKTNV-1" vertex="1">
          <mxGeometry x="419" y="80" width="120" height="60" as="geometry" />
        </mxCell>
        <mxCell id="zyLFG_JOlrQk-XFl9pap-18" value="mp4 recording" style="shape=tape;whiteSpace=wrap;html=1;" parent="WIyWlLk6GJQsqaUBKTNV-1" vertex="1">
          <mxGeometry x="549" y="265" width="50" height="40" as="geometry" />
        </mxCell>
        <mxCell id="zyLFG_JOlrQk-XFl9pap-19" value="mp4 recording" style="shape=tape;whiteSpace=wrap;html=1;" parent="WIyWlLk6GJQsqaUBKTNV-1" vertex="1">
          <mxGeometry x="549" y="335" width="50" height="40" as="geometry" />
        </mxCell>
        <mxCell id="zyLFG_JOlrQk-XFl9pap-21" style="edgeStyle=orthogonalEdgeStyle;rounded=0;orthogonalLoop=1;jettySize=auto;html=1;exitX=0.5;exitY=1;exitDx=0;exitDy=0;entryX=0.855;entryY=0;entryDx=0;entryDy=4.35;entryPerimeter=0;" parent="WIyWlLk6GJQsqaUBKTNV-1" source="zyLFG_JOlrQk-XFl9pap-14" target="zyLFG_JOlrQk-XFl9pap-7" edge="1">
          <mxGeometry relative="1" as="geometry" />
        </mxCell>
        <mxCell id="zyLFG_JOlrQk-XFl9pap-22" value="2. save recordings" style="edgeLabel;html=1;align=center;verticalAlign=middle;resizable=0;points=[];" parent="zyLFG_JOlrQk-XFl9pap-21" vertex="1" connectable="0">
          <mxGeometry x="0.0994" y="-3" relative="1" as="geometry">
            <mxPoint as="offset" />
          </mxGeometry>
        </mxCell>
        <mxCell id="zyLFG_JOlrQk-XFl9pap-29" style="edgeStyle=orthogonalEdgeStyle;rounded=0;orthogonalLoop=1;jettySize=auto;html=1;exitX=0.5;exitY=1;exitDx=0;exitDy=0;entryX=0;entryY=0;entryDx=0;entryDy=142.5;entryPerimeter=0;" parent="WIyWlLk6GJQsqaUBKTNV-1" source="zyLFG_JOlrQk-XFl9pap-4" target="zyLFG_JOlrQk-XFl9pap-7" edge="1">
          <mxGeometry relative="1" as="geometry" />
        </mxCell>
        <mxCell id="zyLFG_JOlrQk-XFl9pap-30" value="5. save comparison.json &lt;br&gt;and html plots" style="edgeLabel;html=1;align=center;verticalAlign=middle;resizable=0;points=[];" parent="zyLFG_JOlrQk-XFl9pap-29" vertex="1" connectable="0">
          <mxGeometry x="0.4469" y="-2" relative="1" as="geometry">
            <mxPoint x="-52" y="13" as="offset" />
          </mxGeometry>
        </mxCell>
        <mxCell id="_EcduAbEQB1p62RQrowE-0" value="html plot" style="whiteSpace=wrap;html=1;shape=mxgraph.basic.document" parent="WIyWlLk6GJQsqaUBKTNV-1" vertex="1">
          <mxGeometry x="419" y="250" width="40" height="40" as="geometry" />
        </mxCell>
        <mxCell id="_EcduAbEQB1p62RQrowE-1" value="png plot" style="whiteSpace=wrap;html=1;shape=mxgraph.basic.document" parent="WIyWlLk6GJQsqaUBKTNV-1" vertex="1">
          <mxGeometry x="459" y="250" width="40" height="40" as="geometry" />
        </mxCell>
      </root>
    </mxGraphModel>
  </diagram>
</mxfile>
